<?xml version="1.0" encoding="UTF-8"?>
<svg version="1.1" xmlns="http://www.w3.org/2000/svg" width="512" height="512">
<path d="M0 0 C3.87821163 3.14533271 7.32881069 6.62360975 10.796875 10.2109375 C11.76488249 11.19017198 12.73425033 12.16806337 13.70489502 13.14468384 C16.22380586 15.68621789 18.72414715 18.24524475 21.22070312 20.80871582 C23.78433355 23.43434976 26.36559993 26.04252623 28.9453125 28.65234375 C33.98069062 33.75156465 38.99652762 38.86944768 44 44 C45.42149865 43.52776192 46.84285812 43.05510488 48.26416016 42.58227539 C49.05569489 42.31911026 49.84722961 42.05594513 50.66275024 41.7848053 C52.70466402 41.09916837 54.73969072 40.39308926 56.7734375 39.68359375 C57.96195313 39.27238281 59.15046875 38.86117187 60.375 38.4375 C61.55835938 38.02371094 62.74171875 37.60992187 63.9609375 37.18359375 C83.07135798 31.22508255 106.01585407 31.8280243 125 38 C125.64678711 38.20898926 126.29357422 38.41797852 126.95996094 38.63330078 C142.63257087 43.9035613 155.32608132 52.46443888 167 64 C167.71542969 64.64324219 168.43085938 65.28648438 169.16796875 65.94921875 C185.27327933 80.76867619 195.87391217 105.23238723 197.17700195 126.94995117 C197.24461271 130.3625437 197.28498935 133.77434545 197.3125 137.1875 C197.34150391 138.33669922 197.37050781 139.48589844 197.40039062 140.66992188 C197.475192 151.15937659 195.41600717 160.83420097 193 171 C193.66160126 171.28290894 194.32320251 171.56581787 195.00485229 171.8572998 C201.32773112 174.56131167 207.65007464 177.26657176 213.97186089 179.9731369 C217.21972957 181.36360758 220.46778325 182.75364219 223.71630859 184.14257812 C226.86802252 185.49014249 230.01918673 186.83898534 233.17001724 188.18861389 C234.920512 188.93806316 236.67153338 189.68628204 238.4225769 190.43444824 C240.71565557 191.41715205 243.00349638 192.41215524 245.28633118 193.41842651 C247.91388683 194.56421523 250.56501005 195.58586313 253.25700378 196.57009888 C266.45102223 201.5970241 274.97649582 209.64307539 284.69140625 219.6796875 C286.29782213 221.30226209 287.90642126 222.92267778 289.51707458 224.54104614 C293.70678045 228.76292637 297.86516461 233.01436506 302.0177002 237.27276611 C306.27240526 241.62349644 310.55913501 245.94244563 314.84179688 250.265625 C321.06678159 256.56170116 327.28412218 262.86513198 333.47094727 269.19873047 C334.44704201 270.19299797 334.44704201 270.19299797 335.44285583 271.20735168 C336.32724838 272.11548363 336.32724838 272.11548363 337.22950745 273.04196167 C337.74353402 273.56805464 338.2575606 274.09414761 338.78716373 274.63618279 C341.3269875 277.49217866 341.22083029 280.21230109 341.42578125 283.9296875 C340.81114501 286.91828575 339.26512736 287.99871475 337 290 C334.60110474 291.31381226 334.60110474 291.31381226 331.90283203 292.47021484 C330.37941696 293.13142838 330.37941696 293.13142838 328.82522583 293.80599976 C327.73047943 294.26962921 326.63573303 294.73325867 325.5078125 295.2109375 C324.37028534 295.7015567 323.23275818 296.1921759 322.0607605 296.69766235 C319.03425829 298.00094639 316.00436878 299.29589203 312.97259521 300.58685303 C309.93709834 301.88173496 306.90631039 303.18754172 303.875 304.4921875 C298.34720761 306.86899917 292.81541371 309.2362517 287.28131104 311.59832764 C281.51850317 314.06001701 275.75938244 316.53030887 270 319 C269.99635437 320.08106018 269.99270874 321.16212036 269.98895264 322.27593994 C269.95202906 332.45844646 269.89428536 342.64064982 269.81609726 352.82292557 C269.77656944 358.05790724 269.744407 363.29271937 269.72900391 368.52783203 C269.71387226 373.57899787 269.67948895 378.62969775 269.63169098 383.68065643 C269.61684109 385.60874128 269.60895692 387.53689264 269.60811615 389.46503448 C269.60575557 392.16371987 269.57875012 394.86110798 269.54589844 397.55957031 C269.5509288 398.35870346 269.55595917 399.15783661 269.56114197 399.98118591 C269.49478422 403.49886684 269.32495859 405.57188137 267.16729736 408.414505 C264.26122619 410.54045292 261.18045659 412.12025885 257.9375 413.65234375 C257.24285645 413.98847183 256.54821289 414.32459991 255.83251953 414.6709137 C253.55893217 415.76814441 251.27967467 416.85298074 249 417.9375 C247.40469001 418.70389046 245.80964066 419.47082368 244.21484375 420.23828125 C233.73500384 425.2697953 223.20352873 430.18581106 212.64257812 435.04467773 C203.19891947 439.40354842 193.84548328 443.93531614 184.5 448.5 C172.95154868 454.14069591 161.36099022 459.65641828 149.68286133 465.02490234 C138.25232633 470.30078777 126.94116119 475.8176194 115.63476562 481.35351562 C114.91299637 481.70626556 114.19122711 482.0590155 113.44758606 482.42245483 C112.10248848 483.08008687 110.75809776 483.73916772 109.41459656 484.40005493 C107.61589674 485.27942851 105.80804993 486.1400149 104 487 C102.85829346 487.56831543 101.71658691 488.13663086 100.5402832 488.72216797 C94.80542723 490.79211047 90.38438072 490.78013679 84.84838867 488.4621582 C83.36392776 487.7576053 81.88738473 487.03619657 80.41796875 486.30078125 C79.61472672 485.91432938 78.81148468 485.5278775 77.98390198 485.12971497 C75.3778203 483.87173463 72.7829115 482.59232855 70.1875 481.3125 C68.37669809 480.43389548 66.56516788 479.55679049 64.75292969 478.68115234 C60.29429882 476.52331092 55.84369554 474.34948523 51.39520264 472.1708374 C45.85863779 469.46442038 40.30304983 466.79738156 34.75 464.125 C33.15224731 463.35265015 33.15224731 463.35265015 31.5222168 462.56469727 C23.88453729 458.87925274 16.20139945 455.30005103 8.5 451.75 C-2.98730971 446.45377635 -14.37060822 440.96210024 -25.73492432 435.40765381 C-36.98341708 429.91183741 -48.28277572 424.55067659 -59.68164062 419.37304688 C-81.24761015 409.50477971 -81.24761015 409.50477971 -83 406 C-83.12258264 403.25471169 -83.18571787 400.53313968 -83.20532227 397.78662109 C-83.21522186 396.9377684 -83.22512146 396.08891571 -83.23532104 395.21434021 C-83.26697917 392.40073462 -83.29171049 389.58711212 -83.31640625 386.7734375 C-83.33697206 384.82572992 -83.35796843 382.87802684 -83.37937927 380.93032837 C-83.43463852 375.7978479 -83.48403079 370.66532689 -83.53222656 365.53277588 C-83.58241348 360.29785545 -83.63811419 355.06299406 -83.69335938 349.828125 C-83.80098806 339.55213374 -83.90242256 329.27609127 -84 319 C-84.62845825 318.72739853 -85.2569165 318.45479706 -85.90441895 318.17393494 C-91.90373103 315.5716065 -97.9029368 312.96903315 -103.90203094 310.36620235 C-106.98427315 309.02891767 -110.06656434 307.69174618 -113.14892578 306.35473633 C-114.33856934 305.8387085 -115.52821289 305.32268066 -116.75390625 304.79101562 C-117.93146484 304.28059723 -119.10902344 303.77017883 -120.32226562 303.24429321 C-122.66089286 302.22858171 -124.9981476 301.20970396 -127.33398438 300.18759155 C-132.25900383 298.03506886 -137.1807085 295.90377818 -142.18359375 293.93798828 C-142.93274048 293.63607071 -143.68188721 293.33415314 -144.45373535 293.02308655 C-146.3533888 292.26260847 -148.26316528 291.52754409 -150.17382812 290.79516602 C-154.02099697 288.35146936 -154.93094715 286.40007209 -156 282 C-154.09711279 275.96824678 -150.86518452 272.23802404 -146.47851562 267.78637695 C-145.81919037 267.1023732 -145.15986511 266.41836945 -144.4805603 265.71363831 C-142.30069604 263.46024932 -140.10537483 261.22286957 -137.90625 258.98828125 C-137.14835678 258.21533407 -136.39046356 257.44238689 -135.60960388 256.64601707 C-131.58318005 252.54207691 -127.54419705 248.45096794 -123.49511719 244.36938477 C-120.18510475 241.02862993 -116.89921184 237.66681419 -113.63378906 234.2824707 C-79.97246019 199.42273106 -79.97246019 199.42273106 -57.14276123 192.06112671 C-51.64532794 190.20496492 -46.38947605 187.7874425 -41.08203125 185.453125 C-39.02949317 184.57720966 -36.97547252 183.70475958 -34.91992188 182.8359375 C-33.91759521 182.41151367 -32.91526855 181.98708984 -31.88256836 181.54980469 C-30.8694458 181.12086914 -29.85632324 180.69193359 -28.8125 180.25 C-26.67113521 179.34135496 -24.52985898 178.43250119 -22.38867188 177.5234375 C-17.26012339 175.3465736 -12.13052477 173.17220173 -7 171 C-7.28294922 169.87537354 -7.56589844 168.75074707 -7.85742188 167.59204102 C-10.29415809 157.54876427 -11.65846383 148.31136938 -11.5 137.9375 C-11.48187256 135.99508423 -11.48187256 135.99508423 -11.46337891 134.01342773 C-11.16272214 119.47348427 -7.99773559 107.27228773 -1.9765625 94.07421875 C-0.7158236 91.18011734 -0.7158236 91.18011734 -1.6897583 89.06530762 C-3.21940335 86.65415891 -4.93539848 84.86885235 -6.98730469 82.88085938 C-7.80865906 82.07902222 -8.63001343 81.27718506 -9.47625732 80.4510498 C-10.36581116 79.59064087 -11.25536499 78.73023193 -12.171875 77.84375 C-13.57080714 76.47089563 -14.96972057 75.09802163 -16.36757278 73.72406769 C-19.80472182 70.34768915 -23.25096826 66.98085895 -26.71289062 63.62988281 C-28.65446721 61.74959615 -30.58740974 59.86114621 -32.51202393 57.96350098 C-34.31831455 56.1832198 -36.13634795 54.41474504 -37.96795654 52.66052246 C-44.54263443 46.14030936 -50.77189978 38.23101603 -51.7265625 28.6796875 C-51.4417855 18.01150287 -50.29375262 10.22654048 -42.875 2.125 C-30.07666575 -9.59470641 -14.15655523 -8.61277675 0 0 Z " fill="#010100" transform="translate(163,14)"/>
<path d="M0 0 C18.11829289 14.84693445 30.47461432 34.64891019 34 58 C36.40597816 82.39342312 29.93544248 106.38758998 14.71386719 125.62548828 C-0.25041328 143.79481323 -21.56927254 155.42865477 -45 158 C-71.29133809 159.40364433 -94.56142094 152.41477332 -114.3125 134.6875 C-128.75085434 121.15775399 -136.21456158 104.80558651 -141 86 C-141.20367187 85.21496094 -141.40734375 84.42992187 -141.6171875 83.62109375 C-145.19635306 59.11476627 -138.40654166 35.75206377 -124 16 C-109.04147818 -2.98479061 -88.14591051 -14.79240618 -64.23681641 -17.76855469 C-41.35174148 -20.13649302 -18.28895355 -14.18377177 0 0 Z " fill="#020202" transform="translate(310,82)"/>
<path d="M0 0 C4.39997424 3.77140649 8.44475536 7.33455072 12.45703125 11.4387207 C13.48526982 12.48659805 14.51350877 13.53447503 15.54174805 14.58235168 C16.0745639 15.12739664 16.60737976 15.6724416 17.15634155 16.23400307 C20.01393542 19.15305648 22.8874097 22.05644191 25.7578125 24.96289062 C29.39334441 28.64636862 33.02409263 32.33425604 36.63964844 36.03735352 C39.57837187 39.0464003 42.53159658 42.04051817 45.4949646 45.02528954 C46.61671152 46.16059411 47.73303475 47.30128522 48.84365845 48.44747353 C50.39640943 50.04861132 51.96702003 51.62998787 53.54296875 53.20825195 C54.43008545 54.11170853 55.31720215 55.0151651 56.23120117 55.94599915 C59.57146571 58.42393512 61.88254018 58.807478 66 59 C68.8356308 58.35178987 68.8356308 58.35178987 71.56640625 57.0625 C72.66645996 56.59030029 73.76651367 56.11810059 74.89990234 55.6315918 C76.12080619 55.08781308 77.34167064 54.54394593 78.5625 54 C79.8607246 53.43678833 81.15974772 52.87541448 82.45947266 52.31567383 C85.48199858 51.01173952 88.50038204 49.69868346 91.51708984 48.38134766 C101.08194982 44.2152395 110.69054236 40.15006987 120.29048252 36.06561089 C124.6221728 34.22223317 128.95129054 32.37292512 133.27954102 30.52148438 C135.57958777 29.53905765 137.87963651 28.55663557 140.1796875 27.57421875 C141.25744949 27.11230637 142.33521149 26.65039398 143.44563293 26.17448425 C144.42763168 25.75556412 145.40963043 25.33664398 146.42138672 24.9050293 C147.28496796 24.53564743 148.14854919 24.16626556 149.03829956 23.78569031 C151 23 151 23 152 23 C152 46.76 152 70.52 152 95 C141.35631333 100.32184334 130.70633674 105.61974193 120 110.8125 C119.29199249 111.15627686 118.58398499 111.50005371 117.85452271 111.85424805 C107.71861737 116.77175595 97.54487566 121.5901564 87.26367188 126.19848633 C81.88829834 128.62031926 76.6000728 131.17958421 71.3359375 133.83203125 C63.18932388 137.9364168 54.95275566 141.82897991 46.6875 145.6875 C43.72182549 147.07505454 40.75707799 148.46457373 37.79296875 149.85546875 C37.05702484 150.20080658 36.32108093 150.54614441 35.56283569 150.90194702 C30.64811351 153.21292813 25.75003818 155.55627559 20.86328125 157.92578125 C20.23177658 158.23174728 19.60027191 158.53771332 18.94963074 158.85295105 C15.98011032 160.29298144 13.01334675 161.73838537 10.04956055 163.19018555 C9.01226807 163.69461182 7.97497559 164.19903809 6.90625 164.71875 C6.00197266 165.16154297 5.09769531 165.60433594 4.16601562 166.06054688 C2 167 2 167 0 167 C0 111.89 0 56.78 0 0 Z " fill="#835A3F" transform="translate(264,316)"/>
<path d="M0 0 C0 55.11 0 110.22 0 167 C-4.43783525 165.52072158 -8.2290349 164.02171335 -12.3828125 161.98046875 C-13.28708481 161.53875587 -13.28708481 161.53875587 -14.20962524 161.08811951 C-15.50599162 160.45477414 -16.80161529 159.8199067 -18.09655762 159.18365479 C-21.5885629 157.46875383 -25.08689576 155.76689469 -28.5859375 154.06640625 C-29.29794312 153.72031311 -30.00994873 153.37421997 -30.74353027 153.01763916 C-37.37434436 149.80292268 -44.05459759 146.70304834 -50.75 143.625 C-61.40271436 138.72029049 -71.96258349 133.64647239 -82.5 128.5 C-94.32649107 122.7243017 -106.19630034 117.07087568 -118.14770508 111.55761719 C-125.85096904 108.0032218 -133.53064827 104.403371 -141.1875 100.75 C-142.65944824 100.05028076 -142.65944824 100.05028076 -144.16113281 99.33642578 C-145.05026367 98.91087402 -145.93939453 98.48532227 -146.85546875 98.046875 C-147.63559326 97.67401367 -148.41571777 97.30115234 -149.21948242 96.91699219 C-151 96 -151 96 -152 95 C-152.09436529 92.76070114 -152.11742327 90.5183825 -152.11352539 88.27709961 C-152.11367142 87.5746965 -152.11381744 86.8722934 -152.1139679 86.14860535 C-152.11326872 83.81648722 -152.10547617 81.484448 -152.09765625 79.15234375 C-152.09579208 77.53951562 -152.09436818 75.92668693 -152.09336853 74.31385803 C-152.08954323 70.06084643 -152.07971285 65.80786876 -152.06866455 61.55487061 C-152.05845069 57.2182257 -152.05387096 52.88157533 -152.04882812 48.54492188 C-152.03809059 40.02993231 -152.02101403 31.51497037 -152 23 C-136.16733398 29.18886639 -120.57603481 35.88206772 -105 42.6875 C-101.4777666 44.22378298 -97.95515609 45.7591936 -94.43212891 47.2936554 C-92.26330542 48.23855775 -90.09497112 49.18458413 -87.92724609 50.13200378 C-85.94142654 50.99817857 -83.9528709 51.85811176 -81.96142578 52.71127319 C-79.91523537 53.60171605 -77.8828685 54.52436718 -75.86279297 55.4725647 C-74.83428223 55.9402829 -73.80577148 56.4080011 -72.74609375 56.88989258 C-71.83400146 57.31828934 -70.92190918 57.7466861 -69.98217773 58.18806458 C-66.10138763 59.24465853 -62.80311243 59.21854946 -59 58 C-56.59578995 56.23168074 -54.80356992 54.68787261 -52.78344727 52.56225586 C-52.21817825 51.99640274 -51.65290924 51.43054962 -51.07051086 50.84754944 C-49.21883327 48.98595113 -47.39306324 47.10097084 -45.56640625 45.21484375 C-44.28147321 43.91430424 -42.99490264 42.61538076 -41.70677185 41.31800842 C-38.32972608 37.90865512 -34.97381251 34.47924534 -31.62237549 31.04473877 C-27.53386826 26.86222338 -23.42198819 22.70270977 -19.31244564 18.54087925 C-16.11879551 15.3060351 -12.92920453 12.06750649 -9.75111389 8.81736755 C-9.16881012 8.22349243 -8.58650635 7.62961731 -7.98655701 7.01774597 C-6.89443597 5.90370753 -5.80425355 4.78776428 -4.71630859 3.66964722 C-1.1125875 0 -1.1125875 0 0 0 Z " fill="#966846" transform="translate(248,316)"/>
<path d="M0 0 C0.81052826 0.29874527 1.62105652 0.59749054 2.45614624 0.9052887 C3.58201897 1.31709129 3.58201897 1.31709129 4.7306366 1.73721313 C5.50993027 2.07119614 6.28922394 2.40517914 7.09213257 2.74928284 C7.99429504 3.13315155 8.89645752 3.51702026 9.82595825 3.91252136 C10.8034906 4.33423615 11.78102295 4.75595093 12.78817749 5.19044495 C14.34692596 5.85612991 14.34692596 5.85612991 15.93716431 6.53526306 C19.38296923 8.00819728 22.82579924 9.48795529 26.26864624 10.9677887 C28.688962 12.004088 31.1094565 13.03996993 33.53012085 14.07545471 C38.60376348 16.24651316 43.67595615 18.42092732 48.74716187 20.59767151 C56.225767 23.80766179 63.70788473 27.00939491 71.19052124 30.2099762 C97.30441354 41.38321196 123.3985022 52.60146648 149.45614624 63.9052887 C147.85342091 67.84794195 145.13147178 70.54596581 142.1836853 73.5158844 C141.64683105 74.06427475 141.10997681 74.6126651 140.55685425 75.17767334 C138.78421597 76.98454305 137.0038264 78.78348965 135.22177124 80.58106995 C134.6132708 81.19647329 134.00477036 81.81187664 133.37783051 82.44592857 C130.16062835 85.69892283 126.9373569 88.94576097 123.70907593 92.1877594 C120.37351905 95.53990855 117.05944267 98.91248914 113.74979019 102.29018879 C111.20153053 104.88315588 108.6378628 107.46046091 106.06972504 110.03372765 C104.84065574 111.27070395 103.61748027 112.51356524 102.40036774 113.76230812 C100.69834004 115.50563538 98.97567649 117.22564108 97.2461853 118.94166565 C96.74725769 119.4626181 96.24833008 119.98357056 95.73428345 120.52030945 C94.29019165 121.92648315 94.29019165 121.92648315 91.45614624 123.9052887 C87.52973641 123.81120683 84.33470714 122.61651407 80.76669312 121.04542542 C79.87823196 120.65836426 78.98977081 120.2713031 78.0743866 119.87251282 C77.11755478 119.44762573 76.16072296 119.02273865 75.17489624 118.5849762 C74.15405441 118.13849731 73.13321259 117.69201843 72.08143616 117.23200989 C69.8666551 116.26270364 67.65317607 115.29041817 65.44085693 114.31550598 C60.07702273 111.95242574 54.70502048 109.60809469 49.3332119 107.2632103 C47.46114823 106.44581985 45.58941619 105.62767325 43.71769714 104.80949402 C30.72780871 99.13484884 17.68997757 93.57379984 4.64364624 88.0302887 C2.96996979 87.31868088 2.96996979 87.31868088 1.26248169 86.59269714 C-5.28672163 83.80818811 -11.83702855 81.02628607 -18.38778687 78.24543762 C-23.53558828 76.05954589 -28.68229697 73.87108527 -33.82901001 71.68263245 C-43.06649892 67.7549849 -52.30481028 63.82927793 -61.54385376 59.9052887 C-55.93050471 53.09251651 -49.74044548 46.86401842 -43.53994751 40.5927887 C-42.96696489 40.01323425 -42.39398228 39.43367981 -41.80363655 38.83656311 C-38.77981041 35.78035854 -35.75206478 32.72808965 -32.72183228 29.67823792 C-30.21813346 27.15661695 -27.72326044 24.62671981 -25.23550415 22.08937073 C-22.2202792 19.01414054 -19.19075886 15.95372111 -16.1502552 12.90348816 C-14.99646678 11.74112813 -13.84782964 10.57363129 -12.70449638 9.40098572 C-11.11052397 7.76831196 -9.49886235 6.1553727 -7.88150024 4.5459137 C-6.96916122 3.62326721 -6.0568222 2.70062073 -5.11683655 1.75001526 C-2.54385376 -0.0947113 -2.54385376 -0.0947113 0 0 Z " fill="#C08D58" transform="translate(91.54385375976563,234.09471130371094)"/>
<path d="M0 0 C2.00382494 1.72031389 3.83868582 3.43913633 5.68652344 5.31420898 C6.24306107 5.86709595 6.79959869 6.41998291 7.3730011 6.98962402 C9.20927052 8.81779182 11.03446735 10.65658961 12.859375 12.49609375 C14.1311011 13.76833839 15.4033454 15.04006523 16.67608643 16.31129456 C19.34040665 18.97570448 21.9994825 21.64520742 24.65478516 24.31860352 C28.06514771 27.75168755 31.48650911 31.17355221 34.91161728 34.59191799 C37.53873687 37.21570318 40.16085695 39.84443721 42.7813797 42.47480965 C44.04158921 43.73887799 45.30316167 45.00158902 46.56609344 46.26293755 C48.32606981 48.02254475 50.07942997 49.78848065 51.83105469 51.55639648 C52.3577626 52.08062698 52.88447052 52.60485748 53.42713928 53.14497375 C57 56.77125709 57 56.77125709 57 59 C27.91023137 71.67538544 -1.20656315 84.27982275 -30.41992188 96.66821289 C-41.16391731 101.22600208 -51.89393333 105.81080464 -62.58984375 110.48046875 C-65.51042525 111.7508282 -68.43129389 113.0205255 -71.35220337 114.29013062 C-73.18392038 115.08937363 -75.01385887 115.89270655 -76.84188843 116.7003479 C-79.33046694 117.79981358 -81.82458693 118.88562922 -84.3203125 119.96875 C-85.40994545 120.45742805 -85.40994545 120.45742805 -86.52159119 120.95597839 C-91.35612086 123.03270569 -91.35612086 123.03270569 -93.86038208 122.90550232 C-97.09181579 121.53793539 -99.26190068 119.14614996 -101.68652344 116.68579102 C-102.24306107 116.13290405 -102.79959869 115.58001709 -103.3730011 115.01037598 C-105.20927052 113.18220818 -107.03446735 111.34341039 -108.859375 109.50390625 C-110.1311011 108.23166161 -111.4033454 106.95993477 -112.67608643 105.68870544 C-115.34040665 103.02429552 -117.9994825 100.35479258 -120.65478516 97.68139648 C-124.06514771 94.24831245 -127.48650911 90.82644779 -130.91161728 87.40808201 C-133.53873687 84.78429682 -136.16085695 82.15556279 -138.7813797 79.52519035 C-140.04158921 78.26112201 -141.30316167 76.99841098 -142.56609344 75.73706245 C-144.32606981 73.97745525 -146.07942997 72.21151935 -147.83105469 70.44360352 C-148.3577626 69.91937302 -148.88447052 69.39514252 -149.42713928 68.85502625 C-153 65.22874291 -153 65.22874291 -153 63 C-133.42754673 54.10959176 -113.65135977 45.7044755 -93.8671875 37.29907227 C-91.49347665 36.29055777 -89.11977889 35.28201249 -86.74609375 34.2734375 C-84.95448318 33.51222847 -84.95448318 33.51222847 -83.12667847 32.73564148 C-74.2355965 28.95585551 -65.35201149 25.15880956 -56.47265625 21.3515625 C-55.83602617 21.07859848 -55.1993961 20.80563446 -54.5434742 20.5243988 C-47.77015761 17.61994365 -40.99786933 14.7130961 -34.22583008 11.80566406 C-33.0937059 11.31987885 -31.96158173 10.83409363 -30.79515076 10.33358765 C-28.70275525 9.43573563 -26.61058068 8.53736846 -24.51869202 7.63833618 C-22.63418066 6.82975754 -20.74801289 6.02502628 -18.86004639 5.22454834 C-16.81806787 4.35026133 -14.78477194 3.45558021 -12.75762939 2.54742432 C-11.6924408 2.07947449 -10.6272522 1.61152466 -9.52978516 1.12939453 C-8.56642242 0.6982132 -7.60305969 0.26703186 -6.61050415 -0.17721558 C-3.67956784 -1.10099451 -2.74954871 -1.32049898 0 0 Z " fill="#C08D58" transform="translate(424,235)"/>
<path d="M0 0 C18.11829289 14.84693445 30.47461432 34.64891019 34 58 C36.40597816 82.39342312 29.93544248 106.38758998 14.71386719 125.62548828 C-0.25041328 143.79481323 -21.56927254 155.42865477 -45 158 C-71.29133809 159.40364433 -94.56142094 152.41477332 -114.3125 134.6875 C-128.75085434 121.15775399 -136.21456158 104.80558651 -141 86 C-141.20367187 85.21496094 -141.40734375 84.42992187 -141.6171875 83.62109375 C-145.19635306 59.11476627 -138.40654166 35.75206377 -124 16 C-109.04147818 -2.98479061 -88.14591051 -14.79240618 -64.23681641 -17.76855469 C-41.35174148 -20.13649302 -18.28895355 -14.18377177 0 0 Z M-102 16 C-102.74765625 16.65484375 -103.4953125 17.3096875 -104.265625 17.984375 C-117.94615257 30.73425444 -125.09521311 48.13564393 -126.21875 66.59375 C-126.75681423 88.295674 -119.06652641 106.47697268 -104.3125 122.1875 C-89.4363412 136.51774472 -70.34781055 142.6624236 -49.9921875 142.30859375 C-33.62548405 141.33081102 -18.21733031 134.93129554 -6 124 C-5.25234375 123.34515625 -4.5046875 122.6903125 -3.734375 122.015625 C2.55982903 116.14959811 6.85766177 109.50328084 11 102 C11.4228125 101.25105469 11.845625 100.50210938 12.28125 99.73046875 C20.92844469 82.599852 19.49869888 61.77339666 13.74414062 44.08837891 C6.96321463 25.05818173 -8.76318922 11.37654664 -26.4375 2.6875 C-51.88173632 -7.68379198 -81.63725761 -2.21929582 -102 16 Z " fill="#C8C8C8" transform="translate(310,82)"/>
<path d="M0 0 C12.4151588 8.26447421 20.88748721 20.38089145 24.87890625 34.75 C25.7839699 39.30764194 25.8376254 43.86868163 25.87890625 48.5 C25.88825195 49.23347656 25.89759766 49.96695313 25.90722656 50.72265625 C25.88277598 54.83787687 25.4643284 58.05002202 23.62890625 61.75 C17.15264236 59.7239175 10.97402439 57.26767702 4.7734375 54.51953125 C2.9161962 53.7085707 1.0587688 52.89803625 -0.79882812 52.08789062 C-3.69083985 50.82185022 -6.58124762 49.55248166 -9.46850586 48.27563477 C-12.27951043 47.03462513 -15.09620832 45.80739238 -17.9140625 44.58203125 C-18.77356003 44.19771439 -19.63305756 43.81339752 -20.51860046 43.41743469 C-21.32996964 43.06674423 -22.14133881 42.71605377 -22.97729492 42.35473633 C-23.6829509 42.04401688 -24.38860687 41.73329742 -25.11564636 41.41316223 C-30.01742129 39.97190848 -33.92261661 40.66325239 -38.51855469 42.67773438 C-39.49266296 43.09817017 -40.46677124 43.51860596 -41.47039795 43.95178223 C-42.50497131 44.41113159 -43.53954468 44.87048096 -44.60546875 45.34375 C-46.2170285 46.04292542 -46.2170285 46.04292542 -47.86114502 46.75622559 C-51.28569205 48.24392486 -54.7035822 49.74621802 -58.12109375 51.25 C-61.55392968 52.75123601 -64.98806757 54.24938431 -68.42388916 55.74377441 C-70.56044142 56.67403146 -72.69506302 57.60873734 -74.82757568 58.54821777 C-75.78907532 58.96865356 -76.75057495 59.38908936 -77.74121094 59.82226562 C-78.58915222 60.19532837 -79.43709351 60.56839111 -80.31072998 60.95275879 C-82.37109375 61.75 -82.37109375 61.75 -84.37109375 61.75 C-88.81575173 47.92020763 -86.69579632 33.9346181 -80.24609375 21.125 C-71.74141458 6.25070756 -58.93878586 -3.09658663 -42.46240234 -7.79418945 C-27.85300277 -10.97837682 -12.68747096 -7.38717378 0 0 Z " fill="#E0E5F3" transform="translate(286.37109375,104.25)"/>
<path d="M0 0 C2.66229438 2.66229438 4.12468278 4.74477243 6 7.9375 C20.21280223 30.58821851 44.09395519 46.86978689 70 53 C74.98165227 53.88158117 79.96972637 54.43585716 85 55 C85 64.57 85 74.14 85 84 C71.18244046 78.55575419 57.52649665 72.83066985 43.92086792 66.87884521 C38.16283622 64.36074933 32.39998246 61.85374986 26.63671875 59.34765625 C24.85011589 58.57071411 24.85011589 58.57071411 23.02742004 57.77807617 C9.52451532 51.91354777 -4.0160256 46.13806518 -17.5625 40.375 C-19.28481842 39.64191116 -19.28481842 39.64191116 -21.04193115 38.89401245 C-24.32056778 37.49881717 -27.59960482 36.10456943 -30.87890625 34.7109375 C-32.3054377 34.10450661 -32.3054377 34.10450661 -33.76078796 33.48582458 C-40.49491859 30.62757522 -47.24423258 27.80670115 -54 25 C-54 24.34 -54 23.68 -54 23 C-36.18 15.41 -18.36 7.82 0 0 Z " fill="#956746" transform="translate(163,200)"/>
<path d="M0 0 C18.09342122 7.4557991 36.06228236 15.17900747 54 23 C54 23.66 54 24.32 54 25 C24.63204908 37.79659877 -4.77211173 50.49714475 -34.25708008 63.02197266 C-47.8636353 68.8031363 -61.45274684 74.62086036 -74.99584961 80.54931641 C-76.06585205 81.01644043 -77.13585449 81.48356445 -78.23828125 81.96484375 C-79.14618408 82.3630835 -80.05408691 82.76132324 -80.98950195 83.17163086 C-83 84 -83 84 -84 84 C-84 74.43 -84 64.86 -84 55 C-79.854375 54.4740625 -79.854375 54.4740625 -75.625 53.9375 C-56.11486221 51.05726281 -37.68957446 42.15201836 -23 29 C-22.10667969 28.20078125 -21.21335937 27.4015625 -20.29296875 26.578125 C-12.81338889 19.50652222 -7.43631468 11.68108177 -2 3 C-1.34 2.01 -0.68 1.02 0 0 Z " fill="#825A3F" transform="translate(348,200)"/>
<path d="M0 0 C6.52273811 2.43927545 10.75288695 7.37404909 15.5546875 12.26171875 C16.45623566 13.16751175 17.35778381 14.07330475 18.28665161 15.00654602 C20.66926793 17.40307228 23.04516887 19.80587577 25.41802979 22.21203613 C27.84609229 24.67091858 30.28278808 27.12121319 32.71875 29.57226562 C37.48712726 34.37366991 42.24683076 39.18354255 47 44 C45.50699701 47.16131919 44.17235978 48.92606224 41.4375 51.125 C36.46438888 55.31336331 32.2580182 60.10130777 28 65 C24.66919201 63.54804956 22.47053193 61.72345476 19.90576172 59.16455078 C19.11168915 58.37678253 18.31761658 57.58901428 17.4994812 56.77737427 C16.65144928 55.92529388 15.80341736 55.0732135 14.9296875 54.1953125 C14.05224884 53.31978729 13.17481018 52.44426208 12.27078247 51.54220581 C9.94320194 49.21633413 7.62056407 46.88565358 5.29943848 44.55334473 C3.87635994 43.12636367 2.44944716 41.70334003 1.02099609 40.28173828 C-1.72316179 37.54992649 -4.46031254 34.81128978 -7.1953125 32.0703125 C-8.04739288 31.22228058 -8.89947327 30.37424866 -9.77737427 29.5005188 C-10.56514252 28.70644623 -11.35291077 27.91237366 -12.16455078 27.09423828 C-12.85864044 26.39855743 -13.5527301 25.70287659 -14.26785278 24.9861145 C-17.82191108 20.91096046 -18.45125371 17.52740685 -18.3125 12.24609375 C-17.63474038 7.37469648 -14.83394448 4.72022478 -11.25 1.625 C-7.34181618 -0.32909191 -4.28867615 -0.87507914 0 0 Z " fill="#B3B3B3" transform="translate(146,24)"/>
<path d="M0 0 C0 14.19 0 28.38 0 43 C-14.64077446 41.37324728 -27.38303147 34.31276274 -36.6875 22.6875 C-38.13671875 20.76171875 -38.13671875 20.76171875 -39 19 C-38 16 -38 16 -34.50585938 14.19067383 C-32.95665253 13.51822184 -31.4021866 12.85780686 -29.84375 12.20703125 C-29.02628296 11.85613937 -28.20881592 11.5052475 -27.36657715 11.14372253 C-24.74859133 10.02314527 -22.12440247 8.91795339 -19.5 7.8125 C-17.73006229 7.05628918 -15.96052544 6.29913937 -14.19140625 5.54101562 C-1.21020442 0 -1.21020442 0 0 0 Z " fill="#946746" transform="translate(248,164)"/>
<path d="M0 0 C26.35535308 10.95671982 26.35535308 10.95671982 38 16 C38 21.96902181 35.0623848 24.81714909 31 29 C22.19302789 36.31346136 11.74741067 43 0 43 C0 28.81 0 14.62 0 0 Z " fill="#825A3F" transform="translate(264,164)"/>
</svg>
